<svg width="759" height="760" viewBox="0 0 759 760" fill="none" xmlns="http://www.w3.org/2000/svg">
<circle cx="379.311" cy="379.801" r="379.223" fill="#005D75"/>
<rect x="348.654" y="115.751" width="68.7087" height="163.183" fill="#F8DDC0"/>
<rect x="647.752" y="347.586" width="68.7087" height="163.183" transform="rotate(90 647.752 347.586)" fill="#F8DDC0"/>
<rect x="546.406" y="168.271" width="68.7087" height="163.183" transform="rotate(44.5832 546.406 168.271)" fill="#F8DDC0"/>
<rect x="170.896" y="215.811" width="68.7087" height="163.183" transform="rotate(-45 170.896 215.811)" fill="#F8DDC0"/>
<rect x="115.768" y="414.266" width="68.7087" height="163.183" transform="rotate(-90.4168 115.768 414.266)" fill="#F8DDC0"/>
<rect x="590.814" y="541.291" width="68.7087" height="163.183" transform="rotate(135 590.814 541.291)" fill="#F8DDC0"/>
<rect x="215.371" y="588.86" width="68.7087" height="163.183" transform="rotate(-135 215.371 588.86)" fill="#F8DDC0"/>
<rect x="413.836" y="643.99" width="68.7087" height="163.183" transform="rotate(179.583 413.836 643.99)" fill="#F8DDC0"/>
<circle cx="380.056" cy="378.083" r="114.232" fill="#1B8E9D"/>
</svg>
