<svg width="15" height="14" viewBox="0 0 15 14" fill="none" xmlns="http://www.w3.org/2000/svg">
<path d="M11.8662 0C12.5293 0 13.1651 0.263392 13.634 0.732233C14.1028 1.20107 14.3662 1.83696 14.3662 2.5V11.5C14.3662 12.163 14.1028 12.7989 13.634 13.2678C13.1651 13.7366 12.5293 14 11.8662 14H2.86621C2.20317 14 1.56728 13.7366 1.09844 13.2678C0.629603 12.7989 0.366211 12.163 0.366211 11.5V2.5C0.366211 1.83696 0.629603 1.20107 1.09844 0.732233C1.56728 0.263392 2.20317 0 2.86621 0H11.8662ZM11.8662 1H2.86621C2.46839 1 2.08686 1.15804 1.80555 1.43934C1.52425 1.72064 1.36621 2.10218 1.36621 2.5V11.5C1.36621 11.8978 1.52425 12.2794 1.80555 12.5607C2.08686 12.842 2.46839 13 2.86621 13H11.8662C12.264 13 12.6456 12.842 12.9269 12.5607C13.2082 12.2794 13.3662 11.8978 13.3662 11.5V2.5C13.3662 2.10218 13.2082 1.72064 12.9269 1.43934C12.6456 1.15804 12.264 1 11.8662 1ZM4.36621 8C4.63143 8 4.88578 8.10536 5.07332 8.29289C5.26085 8.48043 5.36621 8.73478 5.36621 9C5.36621 9.26522 5.26085 9.51957 5.07332 9.70711C4.88578 9.89464 4.63143 10 4.36621 10C4.10099 10 3.84664 9.89464 3.6591 9.70711C3.47157 9.51957 3.36621 9.26522 3.36621 9C3.36621 8.73478 3.47157 8.48043 3.6591 8.29289C3.84664 8.10536 4.10099 8 4.36621 8ZM7.36621 8C7.63143 8 7.88578 8.10536 8.07332 8.29289C8.26085 8.48043 8.36621 8.73478 8.36621 9C8.36621 9.26522 8.26085 9.51957 8.07332 9.70711C7.88578 9.89464 7.63143 10 7.36621 10C7.10099 10 6.84664 9.89464 6.6591 9.70711C6.47157 9.51957 6.36621 9.26522 6.36621 9C6.36621 8.73478 6.47157 8.48043 6.6591 8.29289C6.84664 8.10536 7.10099 8 7.36621 8ZM4.36621 4C4.63143 4 4.88578 4.10536 5.07332 4.29289C5.26085 4.48043 5.36621 4.73478 5.36621 5C5.36621 5.26522 5.26085 5.51957 5.07332 5.70711C4.88578 5.89464 4.63143 6 4.36621 6C4.10099 6 3.84664 5.89464 3.6591 5.70711C3.47157 5.51957 3.36621 5.26522 3.36621 5C3.36621 4.73478 3.47157 4.48043 3.6591 4.29289C3.84664 4.10536 4.10099 4 4.36621 4ZM7.36621 4C7.63143 4 7.88578 4.10536 8.07332 4.29289C8.26085 4.48043 8.36621 4.73478 8.36621 5C8.36621 5.26522 8.26085 5.51957 8.07332 5.70711C7.88578 5.89464 7.63143 6 7.36621 6C7.10099 6 6.84664 5.89464 6.6591 5.70711C6.47157 5.51957 6.36621 5.26522 6.36621 5C6.36621 4.73478 6.47157 4.48043 6.6591 4.29289C6.84664 4.10536 7.10099 4 7.36621 4ZM10.3662 4C10.6314 4 10.8858 4.10536 11.0733 4.29289C11.2609 4.48043 11.3662 4.73478 11.3662 5C11.3662 5.26522 11.2609 5.51957 11.0733 5.70711C10.8858 5.89464 10.6314 6 10.3662 6C10.101 6 9.84664 5.89464 9.6591 5.70711C9.47157 5.51957 9.36621 5.26522 9.36621 5C9.36621 4.73478 9.47157 4.48043 9.6591 4.29289C9.84664 4.10536 10.101 4 10.3662 4Z" fill="#666666"/>
</svg>
