<svg width="31" height="34" viewBox="0 0 31 34" fill="none" xmlns="http://www.w3.org/2000/svg">
<path d="M2.44219 33.8575L28.7618 33.8575C29.9681 33.8575 30.9551 32.8705 30.9551 31.6642L30.9551 3.15131C30.9551 1.94499 29.9681 0.958008 28.7618 0.958008L2.44219 0.958007C1.23588 0.958007 0.248892 1.94499 0.248892 3.15131L0.24889 31.6642C0.24889 32.8705 1.23587 33.8575 2.44219 33.8575ZM13.4087 11.9245L13.4087 14.1178C13.4087 15.3241 12.4217 16.3111 11.2154 16.3111C10.0091 16.3111 9.02209 15.3241 9.02209 14.1178L9.02209 11.9245L5.73214 11.9245C5.11801 11.9245 4.63549 11.442 4.63549 10.8279C4.63549 10.2137 5.11801 9.7312 5.73214 9.7312L9.02209 9.7312L9.02209 7.5379C9.02209 6.33159 10.0091 5.34461 11.2154 5.34461C12.4217 5.34461 13.4087 6.33159 13.4087 7.5379L13.4087 9.7312L25.4718 9.7312C26.086 9.7312 26.5685 10.2137 26.5685 10.8279C26.5685 11.442 26.086 11.9245 25.4718 11.9245L13.4087 11.9245ZM17.7953 22.891L17.7953 20.6977C17.7953 19.4914 18.7823 18.5044 19.9886 18.5044C21.1949 18.5044 22.1819 19.4914 22.1819 20.6977L22.1819 22.891L25.4718 22.891C26.086 22.891 26.5685 23.3735 26.5685 23.9876C26.5685 24.6018 26.086 25.0843 25.4718 25.0843L22.1819 25.0843L22.1819 27.2776C22.1819 28.4839 21.1949 29.4709 19.9886 29.4709C18.7823 29.4709 17.7953 28.4839 17.7953 27.2776L17.7953 25.0843L5.73214 25.0843C5.11801 25.0843 4.63549 24.6018 4.63549 23.9876C4.63549 23.3735 5.11801 22.891 5.73214 22.891L17.7953 22.891Z" fill="#1B8D9D"/>
</svg>
