<svg width="30" height="32" viewBox="0 0 30 32" fill="none" xmlns="http://www.w3.org/2000/svg">
<path opacity="0.8" d="M14.996 10.4366C12.2417 10.4366 9.99393 12.7593 9.99393 15.6055C9.99393 18.4516 12.2417 20.7743 14.996 20.7743C17.7503 20.7743 19.998 18.4516 19.998 15.6055C19.998 12.7593 17.7503 10.4366 14.996 10.4366ZM29.9983 15.6055C29.9983 13.465 30.0171 11.344 29.9008 9.2074C29.7844 6.72572 29.2366 4.52323 27.4804 2.7085C25.7205 0.889901 23.5929 0.327646 21.1913 0.20744C19.1199 0.087234 17.0673 0.106622 14.9997 0.106622C12.9284 0.106622 10.8758 0.087234 8.80815 0.20744C6.40658 0.327646 4.27517 0.893779 2.51902 2.7085C0.759114 4.52711 0.215007 6.72572 0.0986802 9.2074C-0.0176462 11.3478 0.00111615 13.4689 0.00111615 15.6055C0.00111615 17.742 -0.0176462 19.867 0.0986802 22.0035C0.215007 24.4852 0.762867 26.6877 2.51902 28.5024C4.27893 30.321 6.40658 30.8833 8.80815 31.0035C10.8795 31.1237 12.9321 31.1043 14.9997 31.1043C17.0711 31.1043 19.1237 31.1237 21.1913 31.0035C23.5929 30.8833 25.7243 30.3172 27.4804 28.5024C29.2403 26.6838 29.7844 24.4852 29.9008 22.0035C30.0208 19.867 29.9983 17.7459 29.9983 15.6055ZM14.996 23.5585C10.7369 23.5585 7.29966 20.0066 7.29966 15.6055C7.29966 11.2044 10.7369 7.65247 14.996 7.65247C19.255 7.65247 22.6923 11.2044 22.6923 15.6055C22.6923 20.0066 19.255 23.5585 14.996 23.5585ZM23.0075 9.18413C22.0131 9.18413 21.2101 8.35432 21.2101 7.32675C21.2101 6.29918 22.0131 5.46937 23.0075 5.46937C24.0019 5.46937 24.8049 6.29918 24.8049 7.32675C24.8052 7.57075 24.7589 7.81242 24.6687 8.0379C24.5785 8.26339 24.4461 8.46826 24.2791 8.6408C24.1122 8.81333 23.9139 8.95014 23.6957 9.04337C23.4775 9.1366 23.2436 9.18444 23.0075 9.18413Z" fill="#005D75"/>
</svg>
