<svg width="79" height="61" viewBox="0 0 79 61" fill="none" xmlns="http://www.w3.org/2000/svg">
<path fill-rule="evenodd" clip-rule="evenodd" d="M59.1914 8.15314C59.1914 12.1582 55.9446 15.4049 51.9396 15.4049C47.9345 15.4049 44.6878 12.1582 44.6878 8.15314C44.6878 4.1481 47.9345 0.901367 51.9396 0.901367C55.9446 0.901367 59.1914 4.1481 59.1914 8.15314ZM49.1057 50.3316H52.578L48.1809 55.3599L52.949 60.6665H49.4546L44.8471 55.5993V60.6665H41.8899V46.1943H44.8471V55.165L49.1057 50.3316ZM9.3775 46.195H13.2374L7.40049 53.3726L13.5586 60.6672H9.6987L3.71783 53.5341V60.6672H0.472656V46.195H3.71783V53.1889L9.3775 46.195ZM33.8415 46.2092H37.5574L34.7665 48.6335H32.1048L33.8415 46.2092ZM77.6754 51.273C76.814 50.5067 75.69 50.1074 74.541 50.1593C73.6429 50.1375 72.7566 50.369 71.9825 50.8275C71.7384 50.9863 71.5135 51.1732 71.3124 51.3843C71.1191 51.5767 70.9599 51.8008 70.8417 52.047H70.6701V50.3319H67.7129V60.6669H70.6701V55.4604C70.6417 54.7462 70.8875 54.0484 71.3568 53.5115C71.6064 53.2566 71.9078 53.059 72.2404 52.9322C72.5731 52.8053 72.929 52.7522 73.2839 52.7765C74.8954 52.7765 75.8922 53.6952 75.8922 55.4604V60.6669H78.8494V54.614C78.855 53.1273 78.4673 52.008 77.6754 51.273ZM19.8102 50.1589C21.3425 50.0802 22.849 50.5786 24.0356 51.5566C24.5833 52.0492 25.0139 52.6592 25.2957 53.3416C25.5775 54.0239 25.7033 54.7612 25.6637 55.499L25.6028 56.2841H17.0745C17.0682 56.5928 17.1305 56.899 17.257 57.1803C17.3835 57.4617 17.5709 57.711 17.8055 57.9101C18.3783 58.3928 19.1144 58.6342 19.8601 58.5839C20.3291 58.5929 20.7949 58.5038 21.2279 58.3222C21.5195 58.2157 21.7789 58.0354 21.9811 57.7987L22.1693 57.5537H25.4533C25.4391 57.6759 25.4093 57.7956 25.3647 57.9101C25.2479 58.1918 25.0992 58.4589 24.9217 58.7064C24.6763 59.0986 24.3675 59.4468 24.0079 59.7366C23.5042 60.0968 22.9421 60.3662 22.3466 60.5328C21.5473 60.7834 20.7138 60.9055 19.8767 60.8948C18.33 60.9647 16.812 60.4592 15.6125 59.4748C15.0584 58.9846 14.6213 58.375 14.3337 57.6915C14.0461 57.008 13.9153 56.2681 13.9512 55.5268C13.9122 54.7896 14.0376 54.053 14.3184 53.3708C14.5991 52.6887 15.0281 52.0783 15.5738 51.5844C16.7616 50.598 18.2712 50.0901 19.8102 50.1589ZM17.3229 53.6991C17.1986 53.9375 17.1271 54.2001 17.1133 54.4688H22.5016C22.4902 54.2009 22.4227 53.9383 22.3034 53.6984C22.1841 53.4585 22.0158 53.2467 21.8094 53.0767C21.2447 52.6225 20.5319 52.3962 19.8102 52.4419C19.0937 52.3978 18.3871 52.6287 17.8332 53.0879C17.6212 53.2522 17.4472 53.4607 17.3229 53.6991ZM63.6315 51.5568C62.4158 50.6323 60.9332 50.132 59.4089 50.132C57.8846 50.132 56.402 50.6323 55.1863 51.5568C54.6386 52.0495 54.208 52.6595 53.9262 53.3418C53.6444 54.0242 53.5186 54.7615 53.5582 55.4993C53.5215 56.2407 53.6519 56.9808 53.9395 57.6644C54.2272 58.3481 54.6648 58.9575 55.2195 59.4473C56.4187 60.4321 57.9369 60.9377 59.4837 60.8672C60.3189 60.8775 61.1506 60.7554 61.948 60.5053C62.5432 60.3379 63.1052 60.0685 63.6093 59.709C63.9661 59.4162 64.2745 59.0685 64.5231 58.6788C64.6974 58.4303 64.8441 58.1633 64.9606 57.8825C65.004 57.7673 65.0355 57.6479 65.0547 57.5262H61.8095L61.6213 57.7712C61.4191 58.0078 61.1597 58.1881 60.8681 58.2946C60.4371 58.4763 59.9731 58.5654 59.5058 58.5563C58.7584 58.6076 58.0202 58.3661 57.4457 57.8825C57.2066 57.6908 57.013 57.4478 56.8789 57.1714C56.7448 56.895 56.6736 56.592 56.6704 56.2844H65.2208L65.2818 55.4993C65.3186 54.7597 65.1893 54.0214 64.9036 53.3389C64.618 52.6564 64.1832 52.0473 63.6315 51.5568ZM56.7092 54.4691C56.724 54.2 56.7966 53.9372 56.9218 53.6989C57.047 53.4605 57.2219 53.2522 57.4347 53.0882C57.9892 52.6261 58.6986 52.395 59.4172 52.4422C60.139 52.3954 60.8522 52.6218 61.4164 53.077C61.6227 53.247 61.7911 53.4588 61.9104 53.6987C62.0296 53.9386 62.0972 54.2011 62.1086 54.4691H56.7092ZM37.8029 51.5568C36.583 50.6321 35.0969 50.132 33.5692 50.132C32.0416 50.132 30.5554 50.6321 29.3356 51.5568C28.7879 52.0494 28.3573 52.6594 28.0755 53.3418C27.7937 54.0241 27.6679 54.7614 27.7074 55.4992C27.6687 56.2377 27.7948 56.9756 28.0765 57.6588C28.3582 58.3419 28.7884 58.953 29.3356 59.4472C30.5569 60.3685 32.0425 60.8665 33.5692 60.8665C35.096 60.8665 36.5816 60.3685 37.8029 59.4472C38.3501 58.953 38.7803 58.3419 39.062 57.6588C39.3437 56.9756 39.4698 56.2377 39.431 55.4992C39.4706 54.7614 39.3448 54.0241 39.063 53.3418C38.7812 52.6594 38.3506 52.0494 37.8029 51.5568ZM35.6376 57.5261C35.3672 57.7954 35.0437 58.0049 34.688 58.1411C34.3322 58.2772 33.9521 58.3371 33.572 58.3168C33.1926 58.3388 32.8128 58.2796 32.4577 58.1434C32.1027 58.0071 31.7803 57.7967 31.5119 57.5261C31.2582 57.2559 31.0609 56.9374 30.9315 56.5893C30.8022 56.2411 30.7434 55.8705 30.7588 55.4992C30.7472 55.1326 30.8077 54.7672 30.937 54.4241C31.0662 54.0811 31.2616 53.7671 31.5119 53.5002C31.7814 53.2314 32.1041 53.0227 32.459 52.8874C32.8139 52.7522 33.1931 52.6934 33.572 52.715C33.9515 52.6964 34.3307 52.7565 34.686 52.8916C35.0414 53.0267 35.3653 53.2338 35.6376 53.5002C35.8913 53.7704 36.0887 54.0889 36.218 54.437C36.3474 54.7852 36.4061 55.1558 36.3908 55.5271C36.4024 55.8937 36.3419 56.2591 36.2126 56.6022C36.0834 56.9452 35.888 57.2592 35.6376 57.5261ZM31.279 0.901954H19.0359V8.2713V34.2858V41.5162H31.279V34.2911H36.5107V29.3052H43.7037V13.5511H36.5107V8.27664H31.279V0.901954ZM49.7752 41.5098L45.0939 36.8285L47.9903 33.9321L47.0551 32.9969L45.0885 31.0303L49.7538 26.3757L52.6556 29.2775L55.5574 26.3757L60.228 31.041L57.3262 33.9374L58.876 35.4818L60.2387 36.8446L55.5681 41.5152L52.6663 38.6027L49.7752 41.5098Z" fill="url(#paint0_radial)"/>
<defs>
<radialGradient id="paint0_radial" cx="0" cy="0" r="1" gradientUnits="userSpaceOnUse" gradientTransform="translate(82.7314 59.7418) rotate(-144.424) scale(101.137 95.2778)">
<stop offset="0.078125" stop-color="#9EC5CA"/>
<stop offset="0.78125" stop-color="#F3FEFF"/>
</radialGradient>
</defs>
</svg>
