<svg width="37" height="37" viewBox="0 0 37 37" fill="none" xmlns="http://www.w3.org/2000/svg">
<path d="M13.4805 26.9884C16.8344 26.9884 19.8914 25.7328 22.237 23.6802L24.7805 29.0068C24.7805 29.0068 25.3036 29.4329 26.0227 30.1406C26.7589 30.8311 27.7272 31.7652 28.6556 32.7411L31.239 35.3892L32.388 36.6181L36.4229 32.5832L35.194 31.4342L32.5459 28.8508C31.6549 27.9973 30.7877 27.1194 29.9454 26.2179C29.2377 25.4988 28.8116 24.9757 28.8116 24.9757L23.485 22.4323C25.6183 20.0125 26.7959 16.8978 26.797 13.6719C26.797 6.33075 20.8217 0.355469 13.4805 0.355469C6.13935 0.355469 0.164062 6.33075 0.164062 13.6719C0.164062 21.0131 6.13935 26.9884 13.4805 26.9884Z" fill="#1B8D9D"/>
</svg>
