<svg width="1023" height="1015" viewBox="0 0 1023 1015" fill="none" xmlns="http://www.w3.org/2000/svg">
<rect x="99.6641" y="505.522" width="582.447" height="582.447" rx="291.223" transform="rotate(-45 99.6641 505.522)" fill="#FFFAF2"/>
<rect x="99.6641" y="505.522" width="582.447" height="582.447" rx="291.223" transform="rotate(-45 99.6641 505.522)" fill="#DB8A79" fill-opacity="0.7"/>
<path d="M349.06 138.677L141.055 346.682L237.494 443.121L306.514 512.141L238.439 580.215L147.673 670.981L353.788 877.095L444.553 786.329L512.628 718.255L577.866 783.493L672.414 878.041L880.419 670.036L785.871 575.488L719.687 511.195L788.707 442.175L882.31 348.573L676.195 142.459L582.593 236.061L514.519 304.136L445.499 235.116L349.06 138.677Z" fill="#005D75"/>
<rect x="389.221" y="634.568" width="241.422" height="241.422" transform="rotate(-90 389.221 634.568)" fill="#1B8E9D"/>
</svg>
