<svg width="16" height="16" viewBox="0 0 16 16" fill="none" xmlns="http://www.w3.org/2000/svg">
<rect x="6.60205" y="0.523438" width="1.94357" height="4.61597" fill="#FFFAF2"/>
<rect x="15.062" y="7.08203" width="1.94357" height="4.61597" transform="rotate(90 15.062 7.08203)" fill="#FFFAF2"/>
<rect x="12.1958" y="2.00781" width="1.94357" height="4.61597" transform="rotate(44.5832 12.1958 2.00781)" fill="#FFFAF2"/>
<rect x="1.57373" y="3.35547" width="1.94357" height="4.61597" transform="rotate(-45 1.57373 3.35547)" fill="#FFFAF2"/>
<rect x="0.0141602" y="8.96875" width="1.94357" height="4.61597" transform="rotate(-90.4168 0.0141602 8.96875)" fill="#FFFAF2"/>
<rect x="13.4517" y="12.5586" width="1.94357" height="4.61597" transform="rotate(135 13.4517 12.5586)" fill="#FFFAF2"/>
<rect x="2.83154" y="13.9062" width="1.94357" height="4.61597" transform="rotate(-135 2.83154 13.9062)" fill="#FFFAF2"/>
<rect x="8.44519" y="15.4648" width="1.94357" height="4.61597" transform="rotate(179.583 8.44519 15.4648)" fill="#FFFAF2"/>
<path fill-rule="evenodd" clip-rule="evenodd" d="M7.45619 13.6453C10.5867 13.6453 13.1245 11.1075 13.1245 7.97694C13.1245 4.8464 10.5867 2.30859 7.45619 2.30859C4.32565 2.30859 1.78784 4.8464 1.78784 7.97694C1.78784 11.1075 4.32565 13.6453 7.45619 13.6453ZM7.45594 9.87869C8.5076 9.87869 9.36013 9.02616 9.36013 7.9745C9.36013 6.92285 8.5076 6.07031 7.45594 6.07031C6.40429 6.07031 5.55175 6.92285 5.55175 7.9745C5.55175 9.02616 6.40429 9.87869 7.45594 9.87869Z" fill="#FFFAF2"/>
</svg>
