<svg width="14" height="15" viewBox="0 0 14 15" fill="none" xmlns="http://www.w3.org/2000/svg">
<path fill-rule="evenodd" clip-rule="evenodd" d="M13.9272 7.5378C13.9272 11.3837 10.8095 14.5014 6.96359 14.5014C3.1177 14.5014 0 11.3837 0 7.5378C0 3.69192 3.1177 0.574219 6.96359 0.574219C10.8095 0.574219 13.9272 3.69192 13.9272 7.5378ZM7.09326 5.34948C7.66717 5.34948 8.13242 4.88581 8.13242 4.31384C8.13242 3.74186 7.66717 3.27819 7.09326 3.27819C6.51934 3.27819 6.05409 3.74186 6.05409 4.31384C6.05409 4.88581 6.51934 5.34948 7.09326 5.34948ZM4.84639 10.1001H6.75659V7.41557C6.75659 7.32964 6.74882 7.27481 6.74166 7.24357C6.70646 7.23372 6.64311 7.22317 6.54219 7.22317C6.43144 7.22317 6.35072 7.23253 6.29461 7.24495C6.22329 7.26075 6.14161 7.28589 6.04895 7.32283L5.28053 7.62916V6.17437L5.6462 6.0286C5.79123 5.97078 5.93884 5.92807 6.08845 5.9034C6.23539 5.87362 6.38716 5.86001 6.54219 5.86001C6.93794 5.86001 7.35732 5.94489 7.66203 6.24857C7.97512 6.56061 8.06433 7.002 8.06433 7.41557V10.1001H9.75746V11.4633H4.84639V10.1001Z" fill="#FFFAF2"/>
</svg>
