<svg width="32" height="31" viewBox="0 0 32 31" fill="none" xmlns="http://www.w3.org/2000/svg">
<path opacity="0.8" d="M30.009 0.540039H1.48902C0.803148 0.540039 0.249023 1.07629 0.249023 1.74004V29.34C0.249023 30.0038 0.803148 30.54 1.48902 30.54H30.009C30.6949 30.54 31.249 30.0038 31.249 29.34V1.74004C31.249 1.07629 30.6949 0.540039 30.009 0.540039ZM24.0919 11.4038C24.1035 11.58 24.1035 11.7638 24.1035 11.9438C24.1035 17.4488 19.7713 23.79 11.8546 23.79C9.4134 23.79 7.1504 23.1038 5.2439 21.9225C5.59265 21.96 5.9259 21.975 6.2824 21.975C8.2974 21.975 10.1496 21.315 11.626 20.1975C9.73502 20.16 8.14627 18.96 7.60377 17.31C8.2664 17.4038 8.86315 17.4038 9.54515 17.235C8.57146 17.0436 7.69629 16.5318 7.06831 15.7867C6.44033 15.0416 6.09828 14.1091 6.10027 13.1475V13.095C6.6699 13.4063 7.34027 13.5975 8.04165 13.6238C7.45204 13.2435 6.9685 12.7283 6.6339 12.1239C6.29931 11.5195 6.124 10.8445 6.12352 10.1588C6.12352 9.38254 6.33277 8.67379 6.70865 8.05879C7.7894 9.3463 9.13801 10.3993 10.6668 11.1494C12.1956 11.8995 13.8705 12.3299 15.5824 12.4125C14.974 9.58129 17.1595 7.29004 19.7868 7.29004C21.0268 7.29004 22.1428 7.79254 22.9294 8.60254C23.902 8.42629 24.832 8.07379 25.6613 7.60129C25.3396 8.56504 24.6654 9.37879 23.7703 9.89254C24.6383 9.80254 25.4753 9.57004 26.2503 9.24379C25.6651 10.0763 24.9328 10.815 24.0919 11.4038Z" fill="#0A637A"/>
</svg>
